<svg xmlns="http://www.w3.org/2000/svg" width="800" height="800" viewBox="0 0 37 32" xml:space="preserve"><path fill="#808184" d="M33.582 2.483A9.803 9.803 0 0 0 27.101.065c-2.767 0-5.49 1.134-7.472 3.112l-.781.778a.501.501 0 0 1-.697 0l-1.027-1.024A9.975 9.975 0 0 0 10.032 0C7.415 0 4.938 1 3.059 2.814 1.189 4.619.148 7.101.126 9.802c-.023 2.824 1.095 5.573 3.067 7.541l14.252 14.22c.283.282.658.437 1.055.437s.772-.155 1.055-.437L34.061 17.09a10.043 10.043 0 0 0 2.934-7.399c-.089-2.794-1.302-5.353-3.413-7.208zm-.227 13.899L18.849 30.855a.501.501 0 0 1-.697 0L3.899 16.635c-1.784-1.779-2.794-4.267-2.773-6.824.02-2.431.953-4.66 2.627-6.277A8.994 8.994 0 0 1 10.032 1c2.413 0 4.681.938 6.387 2.64l1.026 1.024c.565.564 1.545.564 2.11 0l.78-.778c1.796-1.792 4.263-2.82 6.766-2.82 2.161 0 4.228.77 5.821 2.169a8.932 8.932 0 0 1 3.073 6.488 8.914 8.914 0 0 1-2.64 6.659z"/></svg>