<svg width="75" height="84" viewBox="0 0 75 84" fill="none" xmlns="http://www.w3.org/2000/svg">
<g clip-path="url(#clip0_114_1742)">
<path d="M37.1076 0C32.778 0 28.6214 0.740202 24.7589 2.0967V8.21624C28.5487 6.59906 32.7231 5.69955 37.1076 5.69955C54.4388 5.69955 68.4877 19.6878 68.4877 36.9441C68.4877 54.2005 54.4388 68.1887 37.1076 68.1887C19.7764 68.1887 5.72589 54.2037 5.72589 36.9473C5.72589 28.2548 9.29266 20.3926 15.046 14.7284V10.683H11.0106C4.21321 17.3803 0 26.673 0 36.9473C0 57.3528 16.6137 73.8946 37.1076 73.8946C57.6016 73.8946 74.2152 57.3528 74.2152 36.9473C74.2152 16.5419 57.5999 0 37.1076 0Z" fill="#D1D3D4"/>
<path d="M30.4557 61.6637V9.03052C28.4598 9.52935 26.5528 10.2454 24.7589 11.1546V59.538C26.5528 60.4472 28.4598 61.1648 30.4557 61.6621V61.6637Z" fill="#D1D3D4"/>
<path d="M22.9036 78.8909C23.3351 79.1097 23.6664 79.4219 23.8959 79.829C24.1254 80.2361 24.2417 80.7141 24.2417 81.266C24.2417 81.8179 24.127 82.2942 23.8959 82.6981C23.6664 83.102 23.3351 83.411 22.9036 83.625C22.4721 83.839 21.9614 83.9452 21.3715 83.9452H19.6875V78.561H21.3715C21.9614 78.561 22.4721 78.6705 22.9036 78.8893V78.8909ZM22.9698 82.814C23.3367 82.4455 23.5209 81.929 23.5209 81.266C23.5209 80.603 23.3367 80.0736 22.9666 79.6987C22.5965 79.3238 22.0648 79.1355 21.3731 79.1355H20.3954V83.3675H21.3731C22.0713 83.3675 22.6046 83.1841 22.9714 82.8156L22.9698 82.814Z" fill="#D1D3D4"/>
<path d="M26.6546 78.5627V83.9469H25.9484V78.5627H26.6546Z" fill="#D1D3D4"/>
<path d="M29.3228 78.5627V81.9693C29.3228 82.4488 29.4407 82.8028 29.6751 83.0345C29.911 83.2662 30.2375 83.3821 30.656 83.3821C31.0746 83.3821 31.3946 83.2662 31.629 83.0345C31.8649 82.8028 31.9813 82.4472 31.9813 81.9693V78.5627H32.6875V81.9612C32.6875 82.4086 32.597 82.7867 32.416 83.0925C32.235 83.3982 31.991 83.6267 31.6823 83.7763C31.3752 83.926 31.0294 84 30.6464 84C30.2633 84 29.9191 83.926 29.6104 83.7763C29.3034 83.6267 29.0593 83.3998 28.8816 83.0925C28.7038 82.7867 28.6133 82.4086 28.6133 81.9612V78.5627H29.3195H29.3228Z" fill="#D1D3D4"/>
<path d="M37.4907 83.9469L36.2026 81.7456H35.3493V83.9469H34.6431V78.5627H36.3885C36.7973 78.5627 37.1416 78.6319 37.4244 78.7719C37.7072 78.9119 37.9173 79.0986 38.0563 79.3351C38.1953 79.5717 38.2664 79.842 38.2664 80.1461C38.2664 80.5162 38.1597 80.8445 37.9448 81.1277C37.7298 81.4109 37.4082 81.5992 36.9784 81.6909L38.3359 83.9469H37.4907ZM35.3493 81.1808H36.3885C36.7715 81.1808 37.0575 81.0875 37.2499 80.8992C37.4406 80.7109 37.5375 80.4599 37.5375 80.1461C37.5375 79.8323 37.4438 79.5797 37.2547 79.4043C37.0656 79.2289 36.778 79.142 36.3901 79.142H35.3509V81.1808H35.3493Z" fill="#D1D3D4"/>
<path d="M44.3865 83.9469H43.6803L40.8408 79.6601V83.9469H40.1345V78.5563H40.8408L43.6803 82.835V78.5563H44.3865V83.9469Z" fill="#D1D3D4"/>
<path d="M49.5614 82.748H47.2034L46.7687 83.9452H46.0237L47.9792 78.5933H48.7937L50.7411 83.9452H49.9961L49.5614 82.748ZM49.3593 82.1768L48.3816 79.4574L47.4038 82.1768H49.3593Z" fill="#D1D3D4"/>
<path d="M53.0748 83.3741H54.9672V83.9453H52.3685V78.5612H53.0748V83.3725V83.3741Z" fill="#D1D3D4"/>
</g>
<defs>
<clipPath id="clip0_114_1742">
<rect width="74.2136" height="84" fill="white"/>
</clipPath>
</defs>
</svg>
