<svg width="97" height="32" viewBox="0 0 97 32" fill="none" xmlns="http://www.w3.org/2000/svg">
<path d="M88.0467 7.24481C88.0083 7.18934 87.9913 7.12534 87.9913 7.06134C87.9913 6.87361 88.1406 6.72427 88.3241 6.72427C88.5075 6.72427 88.6526 6.87361 88.6569 7.06134V7.3344H90.4361V7.05707C90.4318 5.89227 89.4846 4.94507 88.3241 4.94507C87.6713 4.94507 87.0398 5.25654 86.643 5.77707C86.3571 6.15254 86.2078 6.59628 86.2078 7.06134C86.2078 7.22348 86.2249 7.37707 86.259 7.53067C85.4313 7.8336 84.8894 8.61014 84.8894 9.50614C84.8894 10.6709 85.8366 11.6224 87.0057 11.6224C87.5433 11.6224 88.0382 11.4304 88.4265 11.072L88.7891 11.6224H90.9182L88.051 7.24908L88.0467 7.24481ZM87.3342 9.50614C87.3342 9.6896 87.1849 9.83894 87.0014 9.83894C86.8179 9.83894 86.6686 9.69387 86.6686 9.50614C86.6686 9.3184 86.8179 9.17334 87.0014 9.17334C87.1038 9.17334 87.2062 9.22027 87.2574 9.2928L87.2873 9.33974C87.3171 9.39094 87.3342 9.45067 87.3342 9.50614Z" fill="#FFC627"/>
<path d="M87.8379 0C83.2683 0 79.552 3.71627 79.552 8.2816C79.552 12.8469 83.2683 16.5675 87.8379 16.5675C92.4075 16.5675 96.1237 12.8512 96.1237 8.2816C96.1237 3.712 92.4075 0 87.8379 0ZM93.5723 8.2816C93.5723 11.4432 90.9995 14.0203 87.8336 14.0203C84.6677 14.0203 82.0949 11.4475 82.0949 8.2816C82.0949 5.11574 84.6677 2.54294 87.8336 2.54294C90.9995 2.54294 93.5723 5.11574 93.5723 8.2816Z" fill="#FFC627"/>
<path d="M17.7152 8.63163C19.6224 10.2231 20.8128 12.3223 21.2949 14.9335H14.0885C13.8795 13.9138 13.4059 13.1116 12.672 12.5228C11.9381 11.9383 11.0123 11.6439 9.90294 11.6439C9.03254 11.6439 8.3712 11.8316 7.9232 12.2071C7.47094 12.5826 7.24907 13.1159 7.24907 13.8071C7.24907 14.5879 7.66293 15.1724 8.4864 15.565C9.30987 15.9532 10.6112 16.3458 12.3819 16.734C14.3019 17.1863 15.8763 17.6428 17.1093 18.1079C18.3381 18.573 19.4048 19.3324 20.3051 20.382C21.2053 21.4316 21.6576 22.8439 21.6576 24.6146C21.6576 26.0567 21.2693 27.3324 20.4885 28.4418C19.7077 29.5511 18.5813 30.4215 17.1093 31.053C15.6373 31.6844 13.8965 32.0002 11.8869 32.0002C8.49493 32.0002 5.77707 31.2492 3.7376 29.7474C1.69387 28.2455 0.452267 26.0994 0 23.309H7.42827C7.54774 24.3884 8.00427 25.2162 8.80214 25.7836C9.59574 26.3554 10.624 26.6412 11.8869 26.6412C12.7573 26.6412 13.4187 26.4364 13.8667 26.0311C14.3189 25.6258 14.5408 25.0924 14.5408 24.4311C14.5408 23.5607 14.1269 22.9378 13.3035 22.5623C12.4757 22.1868 11.136 21.79 9.27574 21.3676C7.41547 20.9794 5.88373 20.557 4.6848 20.1047C3.4816 19.6524 2.44907 18.9271 1.57867 17.9202C0.708265 16.9132 0.273066 15.5394 0.273066 13.7986C0.273066 11.5458 1.13067 9.7239 2.8416 8.3287C4.55254 6.9335 6.96747 6.23376 10.0907 6.23376C13.2139 6.23376 15.8165 7.02736 17.7237 8.61883" fill="#FFC627"/>
<path d="M40.1621 25.0666V31.6842H36.6933C33.7493 31.6842 31.4624 30.9589 29.8283 29.4997C28.1941 28.0447 27.3749 25.6341 27.3749 22.2719V13.0431H24V6.55778H27.3749V0.388184H35.072V6.55778H40.1152V13.0431H35.072V22.4085C35.072 23.3983 35.2768 24.0895 35.6821 24.4778C36.0875 24.8703 36.7701 25.0623 37.7301 25.0623H40.1621V25.0666Z" fill="#FFC627"/>
<path d="M63.9787 8.92141C66.1675 10.7091 67.5499 13.1625 68.1216 16.2814H59.9723C59.7334 15.2019 59.2385 14.3614 58.4875 13.7598C57.7366 13.1582 56.7894 12.8595 55.6502 12.8595C54.2976 12.8595 53.1883 13.3929 52.3179 14.4595C51.4475 15.5262 51.0123 17.0793 51.0123 19.1187C51.0123 21.1582 51.4475 22.7155 52.3179 23.7779C53.1883 24.8446 54.2976 25.3779 55.6502 25.3779C56.7894 25.3779 57.7366 25.0793 58.4875 24.4777C59.2385 23.8761 59.7334 23.0356 59.9723 21.9561H68.1216C67.5499 25.0793 66.1718 27.5326 63.9787 29.3161C61.7857 31.1038 59.072 31.9956 55.8294 31.9956C53.3675 31.9956 51.183 31.4793 49.28 30.4425C47.3728 29.4057 45.8795 27.9123 44.8 25.9625C43.7206 24.0126 43.1787 21.7299 43.1787 19.1187C43.1787 16.5075 43.712 14.1907 44.7787 12.2537C45.8454 10.3166 47.3387 8.83182 49.2587 7.79502C51.1787 6.75822 53.3718 6.24194 55.8337 6.24194C59.0763 6.24194 61.7899 7.13368 63.983 8.92141" fill="#FFC627"/>
<path d="M78.7455 23.9829H70.7754V31.6842H78.7455V23.9829Z" fill="#FFC627"/>
</svg>
