<svg width="148" height="60" viewBox="0 0 148 60" fill="none" xmlns="http://www.w3.org/2000/svg">
<mask id="mask0_114_1697" style="mask-type:luminance" maskUnits="userSpaceOnUse" x="36" y="0" width="76" height="39">
<path d="M78.1133 5.69291L58.6206 25.1857C56.4036 27.4136 54.017 28.5467 51.5264 28.5467C46.4794 28.5467 42.3684 24.4412 42.3684 19.3942C42.3684 14.3472 46.4794 10.2418 51.5264 10.2418C53.5189 10.2418 55.4129 10.8713 57.0003 12.0591C57.9254 12.7543 58.7027 13.5973 59.3103 14.5771L64.6638 11.2599C63.6402 9.61226 62.3319 8.18356 60.7773 7.01761C58.0896 5.00867 54.8874 3.94124 51.5264 3.94124C43.0034 3.94124 36.0734 10.8713 36.0734 19.3942C36.0734 27.9172 43.0034 34.8472 51.5264 34.8472C55.692 34.8472 59.688 33.0463 63.0819 29.6415H63.0764L82.5691 10.1487C85.1693 7.5431 88.6671 6.16915 92.373 6.31147C99.21 6.57422 104.755 12.1905 104.952 19.0275C105.171 26.4337 99.2045 32.5262 91.8475 32.5262C91.634 32.5262 91.4205 32.5262 91.2125 32.5098C89.2419 32.4167 87.3589 31.6942 85.7386 30.5666C83.9048 29.2911 77.8944 25.2623 73.1594 27.5121C74.0134 28.8642 77.3251 32.3949 78.4911 33.4951C82.3885 37.1955 87.5888 39.1059 93.0025 38.7884C103.244 38.1918 111.318 29.5484 111.258 19.2847C111.187 8.6379 102.505 0 91.8475 0C86.6581 0 81.7809 2.01989 78.1133 5.69291Z" fill="white"/>
</mask>
<g mask="url(#mask0_114_1697)">
<path d="M73.7004 -37.6262L16.5267 19.5475L73.7004 76.7212L130.874 19.5475L73.7004 -37.6262Z" fill="url(#paint0_linear_114_1697)"/>
</g>
<path d="M8.31494 59.8032L7.45552 57.6793H3.05992L2.1841 59.8032H0L4.30252 49.8571H6.18556L10.4881 59.8032H8.30398H8.31494ZM5.25498 52.3094L3.79893 55.8565H6.69463L5.25498 52.3094Z" fill="white"/>
<path d="M22.6076 59.8034H20.648V54.3841L17.6811 59.8034H16.4768L13.4935 54.3841V59.8034H11.5338V49.8572H13.3019L17.0735 56.727L20.8615 49.8572H22.6131V59.8034H22.6076Z" fill="white"/>
<path d="M32.2418 59.8034H24.6877V49.8572H32.2144V51.68H26.7076V53.9189H31.782V55.7143H26.7076V57.9696H32.2473V59.7924L32.2418 59.8034Z" fill="white"/>
<path d="M40.4468 59.8034L37.1679 56.1522H36.1114V59.8034H34.0916V49.8572H38.8594C39.9268 49.8572 40.7862 50.1473 41.4431 50.7275C42.0945 51.3078 42.4229 52.0687 42.4229 53.0047C42.4229 53.8367 42.1656 54.5265 41.6511 55.0848C41.1365 55.6377 40.4413 55.9825 39.571 56.1084L42.9101 59.8034H40.4468ZM38.8594 54.3294C39.3247 54.3294 39.7024 54.209 39.987 53.9681C40.2717 53.7273 40.4194 53.4043 40.4194 53.0102C40.4194 52.6161 40.2771 52.2931 39.987 52.0522C39.6969 51.8114 39.3247 51.691 38.8594 51.691H36.1114V54.3349H38.8594V54.3294Z" fill="white"/>
<path d="M48.2368 51.6854V59.8032H46.2169V51.6854H42.9052V49.8625H51.543V51.6854H48.2313H48.2368Z" fill="white"/>
<path d="M59.2773 59.8034L58.4179 57.6795H54.0224L53.1465 59.8034H50.9624L55.2649 49.8572H57.148L61.4505 59.8034H59.2664H59.2773ZM56.2229 52.3095L54.7668 55.8566H57.6625L56.2229 52.3095Z" fill="white"/>
<path d="M66.7001 50.9133V59.803H65.5123V50.9133H61.8174V49.8623H70.3786V50.9133H66.7001Z" fill="white"/>
<path d="M79.3178 59.8031H72.0593V49.8569H79.3014V50.9079H73.2308V54.2799H78.8689V55.3364H73.2308V58.7357H79.3178V59.8031Z" fill="white"/>
<path d="M88.2349 59.8031L83.2317 55.3966H82.6843V59.8031H81.5129V49.8569H82.6843V54.3401H83.1442L88.0269 49.8569H89.4939L84.1076 54.8273L89.8224 59.7976H88.2349V59.8031Z" fill="white"/>
<path d="M100.185 59.8031H99.1774L92.6743 51.9097V59.8031H91.5029V49.8569H92.5101L99.0132 57.8434V49.8569H100.185V59.8031Z" fill="white"/>
<path d="M111.083 51.1651C112.079 52.1669 112.578 53.3876 112.578 54.8327C112.578 56.2778 112.079 57.4985 111.083 58.5002C110.087 59.502 108.872 60.0001 107.438 60.0001C106.003 60.0001 104.772 59.502 103.781 58.5002C102.785 57.4985 102.292 56.2778 102.292 54.8327C102.292 53.3876 102.79 52.1669 103.781 51.1651C104.777 50.1634 105.992 49.6653 107.438 49.6653C108.883 49.6653 110.087 50.1634 111.083 51.1651ZM110.246 57.7175C111.007 56.9402 111.39 55.9767 111.39 54.8327C111.39 53.6886 111.007 52.7307 110.246 51.9479C109.485 51.1597 108.549 50.7655 107.443 50.7655C106.337 50.7655 105.385 51.1597 104.624 51.9479C103.863 52.7362 103.48 53.6996 103.48 54.8327C103.48 55.9658 103.863 56.9402 104.624 57.7175C105.385 58.4948 106.326 58.8834 107.443 58.8834C108.56 58.8834 109.485 58.4948 110.246 57.7175Z" fill="white"/>
<path d="M121.571 59.8031H114.701V49.8569H115.873V58.7302H121.571V59.7976V59.8031Z" fill="white"/>
<path d="M131.331 51.1651C132.328 52.1669 132.82 53.3876 132.82 54.8327C132.82 56.2778 132.322 57.4985 131.331 58.5002C130.335 59.502 129.12 60.0001 127.686 60.0001C126.252 60.0001 125.02 59.502 124.029 58.5002C123.033 57.4985 122.54 56.2778 122.54 54.8327C122.54 53.3876 123.038 52.1669 124.029 51.1651C125.025 50.1634 126.241 49.6653 127.686 49.6653C129.131 49.6653 130.335 50.1634 131.331 51.1651ZM130.494 57.7175C131.255 56.9402 131.638 55.9767 131.638 54.8327C131.638 53.6886 131.255 52.7307 130.494 51.9479C129.733 51.1597 128.797 50.7655 127.691 50.7655C126.586 50.7655 125.633 51.1597 124.872 51.9479C124.111 52.7362 123.728 53.6996 123.728 54.8327C123.728 55.9658 124.111 56.9402 124.872 57.7175C125.633 58.4948 126.575 58.8834 127.691 58.8834C128.808 58.8834 129.733 58.4948 130.494 57.7175Z" fill="white"/>
<path d="M144.605 54.3401C144.616 54.4715 144.622 54.6357 144.622 54.8437C144.622 56.3108 144.157 57.5315 143.221 58.5168C142.285 59.5021 141.091 59.9947 139.635 59.9947C138.179 59.9947 136.953 59.4966 135.957 58.4949C134.955 57.4931 134.457 56.2724 134.457 54.8273C134.457 53.3822 134.955 52.1615 135.951 51.1598C136.947 50.158 138.163 49.6599 139.608 49.6599C140.708 49.6599 141.671 49.9172 142.509 50.4263C143.346 50.9353 143.943 51.6415 144.299 52.5392L143.248 52.9114C142.903 52.2108 142.41 51.6743 141.781 51.3076C141.151 50.9408 140.423 50.7602 139.613 50.7602C138.497 50.7602 137.555 51.1543 136.794 51.9425C136.033 52.7308 135.65 53.6942 135.65 54.8273C135.65 55.9604 136.039 56.9293 136.816 57.7121C137.593 58.5004 138.546 58.8945 139.673 58.8945C140.714 58.8945 141.578 58.566 142.279 57.9146C142.974 57.2632 143.385 56.4257 143.505 55.4076H139.11V54.3401H144.616H144.605Z" fill="white"/>
<path d="M146.746 59.8031V49.8569H147.917V59.8031H146.746Z" fill="white"/>
<defs>
<linearGradient id="paint0_linear_114_1697" x1="51.1966" y1="4.01843" x2="95.9918" y2="48.8137" gradientUnits="userSpaceOnUse">
<stop stop-color="#F3A548"/>
<stop offset="0.33" stop-color="#EF8C32"/>
<stop offset="0.66" stop-color="#EA6433"/>
<stop offset="1" stop-color="#E63180"/>
</linearGradient>
</defs>
</svg>
