<svg width="113" height="84" viewBox="0 0 113 84" fill="none" xmlns="http://www.w3.org/2000/svg">
<path d="M30.8706 71.4366C31.6297 72.1896 32.0093 73.1603 32.0093 74.3488V80.5964H29.3833V74.8902C29.3833 74.2368 29.1966 73.7141 28.8233 73.3159C28.4499 72.9238 27.9832 72.7247 27.4232 72.7247C26.7013 72.7247 26.1351 72.9798 25.7182 73.4963C25.3012 74.0128 25.0959 74.772 25.0959 75.7863V80.5964H22.4513V74.8902C22.4513 74.2368 22.2646 73.7141 21.8912 73.3159C21.5179 72.9238 21.0512 72.7247 20.4911 72.7247C19.7693 72.7247 19.2093 72.9798 18.811 73.4839C18.4128 73.9941 18.2074 74.7595 18.2074 75.7863V80.5964H15.5627V70.6028H18.2074V71.4242C18.9541 70.6774 19.9498 70.3041 21.1943 70.3041C22.638 70.3041 23.7331 70.8517 24.4799 71.9469C25.3635 70.8517 26.5769 70.3041 28.1263 70.3041C29.1966 70.3041 30.1114 70.6837 30.8706 71.4366Z" fill="white"/>
<path d="M43.9693 71.8159C44.9524 72.824 45.444 74.0872 45.444 75.6118C45.444 77.1363 44.9587 78.3933 43.9817 79.3952C43.0048 80.397 41.8598 80.8948 40.5343 80.8948C39.2089 80.8948 38.1262 80.5339 37.2301 79.8121V84H34.5854V70.5963H37.2301V71.399C38.1137 70.6648 39.2151 70.2976 40.5343 70.2976C41.8535 70.2976 42.9861 70.8016 43.9693 71.8097M42.0838 77.7835C42.6127 77.2421 42.8741 76.5203 42.8741 75.6118C42.8741 74.7033 42.6127 73.9752 42.0838 73.4276C41.5548 72.88 40.8828 72.6062 40.0676 72.6062C39.3209 72.6062 38.6613 72.8862 38.0826 73.4463C37.5101 74.0063 37.2239 74.7282 37.2239 75.6118C37.2239 76.4954 37.5101 77.211 38.0826 77.7648C38.6551 78.3186 39.3209 78.5987 40.0676 78.5987C40.8828 78.5987 41.5548 78.3311 42.0838 77.7897" fill="white"/>
<path d="M56.8752 76.3152H49.2649C49.4018 77.0246 49.6943 77.5846 50.1547 78.0078C50.6152 78.4309 51.1504 78.6362 51.7664 78.6362C52.899 78.6362 53.7266 78.1944 54.2493 77.317L56.6139 77.8149C56.1845 78.8292 55.5498 79.5945 54.7098 80.1172C53.8697 80.6399 52.8865 80.9013 51.7664 80.9013C50.3228 80.9013 49.1093 80.4097 48.1199 79.4203C47.1305 78.4309 46.6389 77.1615 46.6389 75.612C46.6389 74.0626 47.1367 72.7931 48.1324 71.7975C49.128 70.8019 50.3539 70.3041 51.81 70.3041C53.1727 70.3041 54.3426 70.7832 55.3258 71.7353C56.309 72.6874 56.8255 73.9132 56.8752 75.4129V76.3152ZM50.273 73.0918C49.8001 73.4154 49.4889 73.8697 49.3396 74.4546H54.1684C54.0066 73.8385 53.7141 73.3781 53.2847 73.0732C52.8554 72.7683 52.3638 72.6127 51.8038 72.6127C51.2437 72.6127 50.7459 72.7745 50.273 73.0918Z" fill="white"/>
<path d="M65.8109 70.5466L65.6678 73.0917H65.0891C62.7121 73.0917 61.5235 74.5229 61.5235 77.3791V80.6024H58.8789V70.6088H61.5235V72.4321C62.4321 71.1253 63.6268 70.4719 65.1078 70.4719C65.4127 70.4719 65.6492 70.4968 65.8109 70.5528" fill="white"/>
<path d="M69.1962 77.4166C69.3145 78.3251 70.0052 78.7794 71.256 78.7794C71.7351 78.7794 72.1209 78.686 72.3947 78.4993C72.6747 78.3127 72.8179 78.07 72.8179 77.7775C72.8179 77.3357 72.4507 77.037 71.7165 76.8752L69.6754 76.4521C68.7669 76.2654 68.07 75.9232 67.5846 75.4316C67.0992 74.94 66.8566 74.3302 66.8566 73.6083C66.8566 72.6314 67.2299 71.8411 67.9704 71.225C68.7109 70.609 69.7065 70.3041 70.9448 70.3041C72.1085 70.3041 73.0792 70.5779 73.8571 71.1255C74.6411 71.6731 75.114 72.3887 75.2883 73.2661L72.7619 73.7701C72.7121 73.3532 72.513 73.0234 72.1707 72.7683C71.8285 72.5131 71.3929 72.3887 70.8577 72.3887C70.3786 72.3887 70.0301 72.482 69.8185 72.6811C69.6069 72.8803 69.495 73.1043 69.495 73.3719C69.495 73.8012 69.7936 74.0812 70.3972 74.2119L72.7805 74.7346C73.633 74.9213 74.2864 75.2636 74.7344 75.7676C75.1825 76.2654 75.4065 76.8628 75.4065 77.5597C75.4065 78.6425 75.0082 79.4701 74.2117 80.0426C73.4152 80.6151 72.3511 80.9013 71.0195 80.9013C69.831 80.9013 68.8167 80.6586 67.9766 80.167C67.1366 79.6817 66.6574 78.9412 66.533 77.9518L69.1962 77.4104V77.4166Z" fill="white"/>
<path d="M87.5097 80.6025H84.865V79.8184C83.969 80.5403 82.8676 80.9012 81.5608 80.9012C80.254 80.9012 79.0904 80.3971 78.1134 79.4015C77.1365 78.3997 76.6511 77.1365 76.6511 75.6181C76.6511 74.0998 77.1427 72.8304 78.1197 71.8223C79.1029 70.8142 80.2478 70.3102 81.5546 70.3102C82.8614 70.3102 83.9752 70.6773 84.8588 71.4116V70.6089H87.5035V80.6025H87.5097ZM84.0001 77.7649C84.5726 77.2111 84.8588 76.4955 84.8588 75.6119C84.8588 74.7283 84.5726 74.0064 84.0001 73.4464C83.4276 72.8864 82.7618 72.6064 82.0151 72.6064C81.1999 72.6064 80.5279 72.8801 79.9989 73.4277C79.47 73.9753 79.2086 74.7034 79.2086 75.6119C79.2086 76.5204 79.47 77.2422 79.9989 77.7836C80.5279 78.325 81.1999 78.5926 82.0151 78.5926C82.7618 78.5926 83.4214 78.3126 84.0001 77.7587" fill="white"/>
<path d="M99.0028 71.4739C99.737 72.258 100.104 73.2661 100.104 74.5106V80.5964H97.4596V75.0707C97.4596 74.3613 97.2729 73.795 96.9057 73.3656C96.5386 72.9363 96.047 72.7247 95.431 72.7247C93.7757 72.7247 92.9481 73.8759 92.9481 76.1721V80.5964H90.3035V70.6028H92.9481V71.5051C93.7508 70.7023 94.7962 70.3041 96.0906 70.3041C97.2915 70.3041 98.2623 70.6961 98.9965 71.4739" fill="white"/>
<path d="M112.711 80.6021H110.067V79.8181C109.171 80.5399 108.069 80.9008 106.762 80.9008C105.456 80.9008 104.292 80.3968 103.315 79.4012C102.338 78.3993 101.853 77.1361 101.853 75.6178C101.853 74.0995 102.344 72.83 103.321 71.822C104.305 70.8139 105.449 70.3098 106.756 70.3098C108.063 70.3098 109.177 70.677 110.061 71.4113V66.1842H112.705V80.6084L112.711 80.6021ZM109.202 77.7646C109.774 77.2108 110.061 76.4952 110.061 75.6116C110.061 74.7279 109.774 74.0061 109.202 73.4461C108.629 72.886 107.963 72.606 107.217 72.606C106.402 72.606 105.73 72.8798 105.201 73.4274C104.672 73.975 104.41 74.7031 104.41 75.6116C104.41 76.5201 104.672 77.2419 105.201 77.7833C105.73 78.3246 106.402 78.5922 107.217 78.5922C107.963 78.5922 108.623 78.3122 109.202 77.7584" fill="white"/>
<mask id="mask0_114_1761" style="mask-type:luminance" maskUnits="userSpaceOnUse" x="30" y="6" width="24" height="37">
<path d="M42.5317 6.04224C39.4328 6.04224 36.7321 8.15172 35.9792 11.1511L30.2979 33.7954C29.2276 38.0579 32.4509 42.196 36.8504 42.196H41.0569C44.1558 42.196 46.8564 40.0865 47.6094 37.0872L53.2907 14.4429C54.361 10.1803 51.1376 6.04845 46.7382 6.04845H42.5317V6.04224Z" fill="white"/>
</mask>
<g mask="url(#mask0_114_1761)">
<path d="M54.361 6.04199H29.2275V42.1958H54.361V6.04199Z" fill="url(#paint0_linear_114_1761)"/>
</g>
<mask id="mask1_114_1761" style="mask-type:luminance" maskUnits="userSpaceOnUse" x="35" y="6" width="27" height="45">
<path d="M43.0981 6.04224C38.1324 6.04224 34.4921 11.0701 35.6993 16.2536L42.1149 43.789C42.9612 47.4417 46.0165 50.0055 49.5137 50.0055H54.2678C59.2273 50.0055 62.8738 44.9776 61.6666 39.7941L55.251 12.2587C54.3985 8.60598 51.3494 6.04224 47.8522 6.04224H43.0981Z" fill="white"/>
</mask>
<g mask="url(#mask1_114_1761)">
<path d="M62.8736 6.04199H34.4919V49.999H62.8736V6.04199Z" fill="url(#paint1_linear_114_1761)"/>
</g>
<mask id="mask2_114_1761" style="mask-type:luminance" maskUnits="userSpaceOnUse" x="41" y="0" width="35" height="51">
<path d="M59.75 0.883301C55.2759 0.883301 51.3805 3.79551 50.2915 7.95226L42.09 39.271C40.5468 45.1701 45.2014 50.8888 51.5485 50.8888H57.6281C62.096 50.8888 65.9976 47.9766 67.0866 43.8198L75.2818 12.501C76.825 6.60194 72.1705 0.883301 65.8233 0.883301H59.75Z" fill="white"/>
</mask>
<g mask="url(#mask2_114_1761)">
<path d="M76.8253 0.883301H40.5471V50.8888H76.8253V0.883301Z" fill="url(#paint2_linear_114_1761)"/>
</g>
<mask id="mask3_114_1761" style="mask-type:luminance" maskUnits="userSpaceOnUse" x="49" y="0" width="36" height="55">
<path d="M59.4764 0C52.9924 0 48.2383 6.21024 49.8188 12.6196L58.1883 46.6514C59.3022 51.1691 63.2847 54.3365 67.8521 54.3365H74.0561C80.5402 54.3365 85.2943 48.1262 83.72 41.7169L75.3442 7.68502C74.2304 3.16735 70.2541 0 65.6867 0H59.4764Z" fill="white"/>
</mask>
<g mask="url(#mask3_114_1761)">
<path d="M85.2946 0H48.2385V54.3365H85.2946V0Z" fill="url(#paint3_linear_114_1761)"/>
</g>
<path d="M11.2195 80.6026L10.0559 77.7402H4.12562L2.94334 80.6026H0L5.80575 67.1803H8.35085L14.1566 80.6026H11.2133H11.2195ZM7.09385 70.4845L5.13373 75.2698H9.04156L7.10008 70.4845H7.09385Z" fill="white"/>
<defs>
<linearGradient id="paint0_linear_114_1761" x1="68.306" y1="64.5302" x2="68.306" y2="28.3764" gradientUnits="userSpaceOnUse">
<stop stop-color="#804C96"/>
<stop offset="1" stop-color="#4B4A96"/>
</linearGradient>
<linearGradient id="paint1_linear_114_1761" x1="23.3826" y1="-16.4555" x2="23.3826" y2="27.5078" gradientUnits="userSpaceOnUse">
<stop stop-color="#E62D76"/>
<stop offset="1" stop-color="#BC4691"/>
</linearGradient>
<linearGradient id="paint2_linear_114_1761" x1="20.5624" y1="50.4127" x2="54.3515" y2="50.4127" gradientUnits="userSpaceOnUse">
<stop stop-color="#EC752B"/>
<stop offset="1" stop-color="#CD263E"/>
</linearGradient>
<linearGradient id="paint3_linear_114_1761" x1="82.1073" y1="67.2555" x2="82.1073" y2="12.919" gradientUnits="userSpaceOnUse">
<stop stop-color="#FFC025"/>
<stop offset="1" stop-color="#ED8029"/>
</linearGradient>
</defs>
</svg>
