<svg width="99" height="72" viewBox="0 0 99 72" fill="none" xmlns="http://www.w3.org/2000/svg">
<path d="M10.4864 71.9095V64.2668H6.84375V63.6375H15.0197V64.2668H11.3771V71.9095H10.4864Z" fill="white"/>
<path d="M24.9722 72.0001C23.6762 72.0001 22.6948 71.7228 22.0282 71.1681C21.3615 70.6135 21.0255 69.7975 21.0255 68.7255V63.6375H21.8842V68.8055C21.8842 69.6588 22.1455 70.2935 22.6629 70.7201C23.1802 71.1468 23.9535 71.3601 24.9722 71.3601C25.9908 71.3601 26.7322 71.1468 27.2548 70.7148C27.7722 70.2828 28.0335 69.6481 28.0335 68.8055V63.6375H28.9082V68.7255C28.9082 69.8028 28.5722 70.6188 27.9055 71.1681C27.2388 71.7228 26.2629 72.0001 24.9775 72.0001" fill="white"/>
<path d="M46.5722 63.6375L41.6976 71.0615L36.7802 63.6375H36.0496V71.9095H36.8816L36.8709 65.3441L41.3616 71.9095H42.0176L46.4869 65.2908V71.9095H47.3136V63.6375H46.5722Z" fill="white"/>
<path d="M52.7479 71.9095V63.6375H56.6626C57.6812 63.6375 58.4759 63.8241 59.0519 64.1921C59.6226 64.5654 59.9106 65.1041 59.9106 65.8081C59.9106 66.2881 59.7506 66.6934 59.4252 67.0241C59.0999 67.3548 58.6626 67.5895 58.1079 67.7281V67.6375C58.7372 67.7388 59.2332 67.9628 59.6012 68.3148C59.9692 68.6668 60.1506 69.1201 60.1506 69.6695C60.1506 70.3948 59.8572 70.9548 59.2759 71.3335C58.6946 71.7175 57.8679 71.9095 56.8012 71.9095H52.7426H52.7479ZM53.6226 67.3868H56.5399C57.3612 67.3868 57.9799 67.2535 58.3959 66.9815C58.8172 66.7095 59.0252 66.3095 59.0252 65.7868C59.0252 65.2641 58.8172 64.9014 58.4119 64.6401C58.0012 64.3788 57.3772 64.2508 56.5399 64.2508H53.6226V67.3868ZM53.6226 71.2908H56.7532C57.6119 71.2908 58.2412 71.1575 58.6466 70.8961C59.0519 70.6348 59.2546 70.2241 59.2546 69.6748C59.2546 69.1255 59.0466 68.7201 58.6412 68.4428C58.2306 68.1655 57.6012 68.0268 56.7532 68.0268H53.6226V71.2908Z" fill="white"/>
<path d="M70.8652 72.0001C69.5692 72.0001 68.5879 71.7228 67.9212 71.1681C67.2546 70.6135 66.9186 69.7975 66.9186 68.7255V63.6375H67.7772V68.8055C67.7772 69.6588 68.0386 70.2935 68.5559 70.7201C69.0732 71.1468 69.8466 71.3601 70.8652 71.3601C71.8839 71.3601 72.6252 71.1468 73.1479 70.7148C73.6652 70.2828 73.9266 69.6481 73.9266 68.8055V63.6375H74.8013V68.7255C74.8013 69.8028 74.4652 70.6188 73.7986 71.1681C73.1319 71.7228 72.1559 72.0001 70.8706 72.0001" fill="white"/>
<path d="M81.9426 63.6375H82.8173V71.9095H81.9426V63.6375ZM82.444 67.4028H89.7773V68.0161H82.444V67.4028ZM89.308 63.6375H90.1933V71.9095H89.308V63.6375Z" fill="white"/>
<mask id="mask0_114_1720" style="mask-type:luminance" maskUnits="userSpaceOnUse" x="0" y="19" width="31" height="31">
<path d="M2.54533 47.1838C0.94 45.5785 0.94 42.9598 2.54533 41.3545L21.9533 21.9518C23.5587 20.3465 26.172 20.3465 27.7827 21.9518C29.388 23.5571 29.388 26.1758 27.7827 27.7811L8.38001 47.1838C7.57467 47.9892 6.51867 48.3892 5.46267 48.3892C4.40667 48.3892 3.35067 47.9892 2.55067 47.1838M21.004 21.0025L1.596 40.4051C-0.532 42.5385 -0.532 46.0051 1.596 48.1332C3.724 50.2665 7.196 50.2665 9.324 48.1332L28.7267 28.7305C30.86 26.5971 30.86 23.1305 28.7267 21.0025C27.66 19.9358 26.2627 19.4025 24.86 19.4025C23.4573 19.4025 22.06 19.9358 20.9987 21.0025" fill="white"/>
</mask>
<g mask="url(#mask0_114_1720)">
<path d="M15.1654 3.7018L-15.9662 34.8334L15.1654 65.965L46.297 34.8334L15.1654 3.7018Z" fill="url(#paint0_linear_114_1720)"/>
</g>
<mask id="mask1_114_1720" style="mask-type:luminance" maskUnits="userSpaceOnUse" x="68" y="0" width="31" height="31">
<path d="M71.1002 27.7814C69.4949 26.176 69.4949 23.5574 71.1002 21.952L90.5029 2.54933C92.1136 0.944 94.7269 0.944 96.3323 2.54933C97.9429 4.15467 97.9429 6.77334 96.3323 8.37867L76.9296 27.7814C76.1296 28.5867 75.0736 28.9867 74.0176 28.9867C72.9616 28.9867 71.9056 28.5867 71.1002 27.7814ZM89.5536 1.6L70.1509 21.0027C68.0176 23.136 68.0176 26.6027 70.1509 28.7307C72.2842 30.864 75.7509 30.864 77.8789 28.7307L97.2816 9.32801C99.4149 7.19467 99.4149 3.728 97.2816 1.6C96.2203 0.533334 94.8176 0 93.4202 0C92.0229 0 90.6202 0.533334 89.5536 1.6Z" fill="white"/>
</mask>
<g mask="url(#mask1_114_1720)">
<path d="M83.7147 -15.6996L52.5831 15.432L83.7147 46.5636L114.846 15.432L83.7147 -15.6996Z" fill="url(#paint1_linear_114_1720)"/>
</g>
<mask id="mask2_114_1720" style="mask-type:luminance" maskUnits="userSpaceOnUse" x="24" y="0" width="51" height="50">
<path d="M27.132 47.184C25.5213 45.5787 25.5213 42.96 27.132 41.3547L65.9373 2.54933C67.5427 0.944 70.1613 0.944 71.7667 2.54933C73.372 4.15467 73.372 6.77334 71.7667 8.37867L32.9613 47.184C32.156 47.9894 31.1 48.3894 30.044 48.3894C28.988 48.3894 27.932 47.9894 27.132 47.184ZM64.988 1.6L26.1773 40.4054C24.0493 42.5387 24.0493 46.0054 26.1773 48.1334C28.3106 50.2667 31.7773 50.2667 33.9106 48.1334L72.716 9.32801C74.8493 7.19467 74.8493 3.728 72.716 1.6C71.6493 0.533334 70.252 0 68.8493 0C67.4467 0 66.0547 0.533334 64.988 1.6Z" fill="white"/>
</mask>
<g mask="url(#mask2_114_1720)">
<path d="M49.4517 -25.3991L-1.08289 25.1355L49.4517 75.6701L99.9863 25.1355L49.4517 -25.3991Z" fill="url(#paint2_linear_114_1720)"/>
</g>
<defs>
<linearGradient id="paint0_linear_114_1720" x1="-6.85883" y1="47.6113" x2="20.2752" y2="20.4772" gradientUnits="userSpaceOnUse">
<stop stop-color="#EA9942"/>
<stop offset="1" stop-color="#F6CB83"/>
</linearGradient>
<linearGradient id="paint1_linear_114_1720" x1="61.7093" y1="27.9874" x2="88.8434" y2="0.853337" gradientUnits="userSpaceOnUse">
<stop stop-color="#EA9942"/>
<stop offset="1" stop-color="#F6CB83"/>
</linearGradient>
<linearGradient id="paint2_linear_114_1720" x1="25.5737" y1="48.0133" x2="72.1108" y2="1.47626" gradientUnits="userSpaceOnUse">
<stop stop-color="#EA9942"/>
<stop offset="1" stop-color="#F6CB83"/>
</linearGradient>
</defs>
</svg>
