<svg width="87" height="84" viewBox="0 0 87 84" fill="none" xmlns="http://www.w3.org/2000/svg">
<mask id="mask0_114_1791" style="mask-type:luminance" maskUnits="userSpaceOnUse" x="44" y="33" width="1" height="1">
<path d="M44.396 33.5844L44.6814 33.0951C44.5795 33.2531 44.4826 33.4162 44.396 33.5844Z" fill="white"/>
</mask>
<g mask="url(#mask0_114_1791)">
<path d="M44.6107 32.9829L44.187 33.2275L44.4699 33.7175L44.8936 33.4728L44.6107 32.9829Z" fill="url(#paint0_linear_114_1791)"/>
</g>
<path d="M26.8695 66.0345C26.8695 66.6155 26.7421 67.1761 26.4872 67.7164C26.2324 68.2566 25.9164 68.7714 25.5291 69.2505C25.1469 69.7346 24.734 70.1831 24.2906 70.6062C23.8472 71.0292 23.4293 71.4012 23.042 71.7376H26.8032V73.8782H18.8984V72.7467C19.6222 72.0536 20.2592 71.4471 20.8148 70.9221C21.3703 70.3972 21.8544 69.9334 22.2673 69.541C22.6801 69.1434 23.0266 68.7969 23.307 68.4911C23.5873 68.1904 23.8115 67.9152 23.9797 67.6603C24.1479 67.4055 24.2651 67.166 24.3416 66.9366C24.4129 66.7073 24.4486 66.4626 24.4486 66.1925C24.4486 66.06 24.418 65.9224 24.3569 65.7899C24.2957 65.6523 24.2091 65.53 24.0868 65.4127C23.9695 65.3006 23.8217 65.2089 23.6434 65.1375C23.465 65.0662 23.2611 65.0305 23.0369 65.0305C22.5068 65.0305 22.0532 65.1732 21.676 65.4586C21.2989 65.744 21.0492 66.0906 20.9269 66.4983C20.6109 66.2843 20.3204 66.0855 20.0553 65.902C19.8311 65.7491 19.6171 65.6064 19.4132 65.4688C19.2093 65.3312 19.0819 65.2395 19.031 65.1987C19.194 64.8113 19.4081 64.475 19.6782 64.1794C19.9483 63.8838 20.2541 63.6493 20.5956 63.4557C20.937 63.262 21.3091 63.1142 21.7067 63.0173C22.1042 62.9205 22.5119 62.8746 22.9298 62.8746C23.3477 62.8746 23.7861 62.9358 24.2498 63.0581C24.7136 63.1804 25.1418 63.3741 25.5291 63.6289C25.9164 63.8889 26.2324 64.2201 26.4872 64.6177C26.737 65.0152 26.8593 65.4892 26.8593 66.0396L26.8695 66.0345Z" fill="#3EAC60"/>
<path d="M41.3336 66.0958V73.8783H39.0401V73.2616C38.714 73.5368 38.3572 73.761 37.9699 73.9292C37.5825 74.0974 37.1748 74.184 36.7467 74.184C36.1657 74.184 35.6152 74.077 35.1005 73.8579C34.5857 73.6387 34.1423 73.338 33.7652 72.9558C33.388 72.5735 33.0924 72.1301 32.8733 71.6205C32.6541 71.1108 32.542 70.5706 32.542 69.9997C32.542 69.4289 32.6541 68.8734 32.8784 68.3586C33.1026 67.8439 33.4033 67.4005 33.7856 67.0233C34.1678 66.6462 34.6112 66.3455 35.1209 66.1314C35.6305 65.9123 36.1708 65.8002 36.7416 65.8002C37.1697 65.8002 37.5774 65.8868 37.9648 66.055C38.3521 66.2232 38.7089 66.4372 39.0351 66.7074V66.1111H41.3285L41.3336 66.0958ZM36.9913 72.1046C37.2767 72.1046 37.5519 72.0486 37.8119 71.9364C38.0718 71.8243 38.3012 71.6765 38.4897 71.488C38.6783 71.2994 38.8363 71.0751 38.9484 70.8152C39.0605 70.5553 39.1166 70.2801 39.1166 69.9845C39.1166 69.6889 39.0605 69.4136 38.9484 69.1537C38.8363 68.8938 38.6834 68.6695 38.4897 68.481C38.2961 68.2924 38.0667 68.1446 37.8119 68.0325C37.557 67.9204 37.2818 67.8643 36.9913 67.8643C36.7008 67.8643 36.4205 67.9204 36.1606 68.0325C35.9007 68.1446 35.6764 68.2924 35.4878 68.481C35.2993 68.6695 35.1515 68.8938 35.0393 69.1537C34.9272 69.4136 34.8711 69.6889 34.8711 69.9845C34.8711 70.2801 34.9272 70.5553 35.0393 70.8152C35.1515 71.0751 35.3044 71.2994 35.4878 71.488C35.6764 71.6765 35.9007 71.8243 36.1606 71.9364C36.4205 72.0486 36.6957 72.1046 36.9913 72.1046Z" fill="#3EAC60"/>
<path d="M48.107 73.878L45.3242 71.1411V73.878H43.0308V63.1752H45.3242V68.8018L47.8929 66.0955H50.7215L47.0672 69.9332L51.1038 73.878H48.107Z" fill="#3EAC60"/>
<path d="M59.7272 66.0958V73.8783H57.4337V73.2616C57.1075 73.5368 56.7508 73.761 56.3634 73.9292C55.9761 74.0974 55.5684 74.184 55.1403 74.184C54.5592 74.184 54.0139 74.077 53.4991 73.8579C52.9844 73.6387 52.541 73.338 52.1638 72.9558C51.7867 72.5735 51.486 72.1301 51.2719 71.6205C51.0528 71.1108 50.9407 70.5706 50.9407 69.9997C50.9407 69.4289 51.0528 68.8734 51.277 68.3586C51.5013 67.8439 51.8071 67.4005 52.1893 67.0233C52.5716 66.6462 53.015 66.3455 53.5246 66.1314C54.0343 65.9123 54.5745 65.8002 55.1454 65.8002C55.5735 65.8002 55.9812 65.8868 56.3685 66.055C56.7559 66.2232 57.1126 66.4372 57.4388 66.7074V66.1111H59.7323L59.7272 66.0958ZM55.3849 72.1046C55.6703 72.1046 55.9455 72.0486 56.2054 71.9364C56.4653 71.8243 56.6947 71.6765 56.8833 71.488C57.0769 71.2994 57.2299 71.0751 57.342 70.8152C57.4541 70.5553 57.5102 70.2801 57.5102 69.9845C57.5102 69.6889 57.4541 69.4136 57.342 69.1537C57.2299 68.8938 57.0769 68.6695 56.8833 68.481C56.6896 68.2924 56.4653 68.1446 56.2054 68.0325C55.9455 67.9204 55.6703 67.8643 55.3849 67.8643C55.0995 67.8643 54.8141 67.9204 54.5541 68.0325C54.2942 68.1446 54.07 68.2924 53.8814 68.481C53.6928 68.6695 53.5399 68.8938 53.4329 69.1537C53.3208 69.4136 53.2647 69.6889 53.2647 69.9845C53.2647 70.2801 53.3208 70.5553 53.4329 70.8152C53.545 71.0751 53.6928 71.2994 53.8814 71.488C54.07 71.6765 54.2942 71.8243 54.5541 71.9364C54.8141 72.0486 55.0893 72.1046 55.3849 72.1046Z" fill="#3EAC60"/>
<path d="M66.011 65.7901C66.2557 65.7901 66.5003 65.8105 66.7347 65.8462C66.9692 65.8819 67.2036 65.9379 67.4126 66.0195L66.9386 68.0989C66.9182 68.0377 66.8163 67.9817 66.6328 67.9358C66.4493 67.8899 66.2658 67.8695 66.0823 67.8695C65.7154 67.8695 65.3892 67.9103 65.1038 67.9918C64.8184 68.0734 64.5738 68.1753 64.375 68.2875C64.1762 68.4047 64.0233 68.5321 63.9163 68.6697C63.8093 68.8073 63.7583 68.9347 63.7583 69.057V73.8733H61.4648V66.0908H63.7583V67.2987C63.7991 67.1458 63.9061 66.9827 64.0743 66.8044C64.2425 66.626 64.4362 66.4629 64.6553 66.3151C64.8745 66.1673 65.1038 66.0399 65.3434 65.9379C65.5829 65.836 65.8021 65.785 66.0059 65.785L66.011 65.7901Z" fill="#3EAC60"/>
<path d="M2.3801 82.4303C2.03353 82.4303 1.71244 82.3691 1.42194 82.2468C1.13143 82.1245 0.881707 81.9461 0.667651 81.7168C0.453595 81.4874 0.290519 81.2122 0.173297 80.9013C0.0560761 80.5904 0 80.2439 0 79.8667C0 79.51 0.0611565 79.1787 0.188571 78.8729C0.315986 78.5671 0.489284 78.297 0.713534 78.0625C0.937783 77.8281 1.19769 77.6497 1.49329 77.5223C1.7889 77.3949 2.10489 77.3286 2.45145 77.3286C2.69609 77.3286 2.93054 77.3643 3.15989 77.4407C3.38923 77.5121 3.59818 77.6191 3.78676 77.7465C3.97533 77.879 4.12824 78.0269 4.24546 78.195L3.7307 78.7302C3.59309 78.5926 3.45548 78.4753 3.31278 78.3836C3.17007 78.2919 3.03245 78.2205 2.88465 78.1746C2.73685 78.1288 2.59415 78.1033 2.44635 78.1033C2.21191 78.1033 1.99787 78.1492 1.79401 78.2358C1.59014 78.3224 1.41684 78.4448 1.26394 78.6028C1.11614 78.7608 0.993822 78.9442 0.912277 79.1634C0.830732 79.3825 0.784862 79.617 0.784862 79.8718C0.784862 80.1419 0.825635 80.3917 0.912277 80.6108C0.993822 80.83 1.11104 81.0185 1.26394 81.1765C1.41684 81.3345 1.60032 81.4518 1.80928 81.5384C2.01824 81.6199 2.25778 81.6658 2.51261 81.6658C2.6706 81.6658 2.82352 81.6454 2.97642 81.5996C3.12931 81.5588 3.272 81.4925 3.40451 81.4161C3.53702 81.3345 3.65935 81.2428 3.76638 81.1307L4.15373 81.7575C4.0467 81.885 3.8938 82.0022 3.70522 82.1092C3.51665 82.2162 3.30767 82.2978 3.07832 82.3538C2.84898 82.415 2.61454 82.4405 2.3852 82.4405L2.3801 82.4303Z" fill="#3EAC60"/>
<path d="M5.01001 82.3589V78.6129H5.75409V79.7902L5.68276 79.5048C5.73373 79.3213 5.82545 79.1583 5.94776 79.0105C6.07518 78.8627 6.2179 78.7454 6.38099 78.6588C6.54408 78.5721 6.71737 78.5314 6.89065 78.5314C6.9722 78.5314 7.04862 78.5365 7.12507 78.5518C7.20152 78.5671 7.2576 78.5823 7.29837 78.6027L7.1047 79.4029C7.04864 79.3774 6.98238 79.357 6.91613 79.3417C6.84987 79.3265 6.77851 79.3163 6.71225 79.3163C6.58484 79.3163 6.46253 79.3417 6.34531 79.3927C6.22809 79.4437 6.12614 79.5099 6.0395 79.6017C5.95286 79.6883 5.88152 79.7902 5.83055 79.9075C5.77959 80.0247 5.75409 80.1521 5.75409 80.2897V82.3589H5.01001Z" fill="#3EAC60"/>
<path d="M9.47943 82.4303C9.09209 82.4303 8.75064 82.3487 8.45504 82.1856C8.15944 82.0225 7.92497 81.7983 7.75678 81.5129C7.5886 81.2275 7.50195 80.9013 7.50195 80.5292C7.50195 80.2336 7.54784 79.9635 7.64467 79.724C7.74151 79.4794 7.874 79.2704 8.04219 79.092C8.21038 78.9136 8.41424 78.776 8.64868 78.6792C8.88313 78.5823 9.13796 78.5314 9.41317 78.5314C9.65781 78.5314 9.88207 78.5773 10.091 78.669C10.3 78.7607 10.4835 78.8881 10.6364 79.0512C10.7893 79.2143 10.9116 79.4029 10.9931 79.6271C11.0747 79.8463 11.1154 80.0909 11.1103 80.3509V80.6668H8.04219L7.87913 80.0807H10.4682L10.3612 80.2031V80.0298C10.3459 79.8718 10.2949 79.7342 10.2032 79.6068C10.1114 79.4844 9.99928 79.3876 9.86167 79.3163C9.72407 79.2449 9.57626 79.2092 9.41317 79.2092C9.15834 79.2092 8.93921 79.2602 8.76593 79.357C8.58755 79.4539 8.45502 79.5966 8.36838 79.7851C8.27664 79.9737 8.23079 80.2031 8.23079 80.4783C8.23079 80.7535 8.28683 80.9675 8.39385 81.1612C8.50088 81.3549 8.65889 81.5027 8.85766 81.6097C9.05643 81.7167 9.28577 81.7677 9.55079 81.7677C9.73427 81.7677 9.90755 81.7371 10.0655 81.676C10.2235 81.6148 10.3968 81.5027 10.5854 81.3396L10.9575 81.8594C10.8453 81.9716 10.7026 82.0735 10.5395 82.1602C10.3764 82.2468 10.2031 82.313 10.0197 82.364C9.83619 82.415 9.65781 82.4405 9.47943 82.4405V82.4303Z" fill="#3EAC60"/>
<path d="M13.353 82.4301C13.0421 82.4301 12.7618 82.3434 12.5069 82.1752C12.2521 82.007 12.0483 81.7726 11.8954 81.477C11.7425 81.1814 11.666 80.8501 11.666 80.4781C11.666 80.106 11.7425 79.7696 11.8954 79.474C12.0483 79.1835 12.2572 78.9542 12.5222 78.786C12.7873 78.6178 13.0829 78.5363 13.409 78.5363C13.6027 78.5363 13.7811 78.5668 13.9442 78.6229C14.1073 78.679 14.25 78.7605 14.3672 78.8624C14.4895 78.9644 14.5863 79.0816 14.6679 79.2141C14.7443 79.3466 14.7953 79.4893 14.8157 79.6422L14.6526 79.5861V78.6178H15.3967V82.3638H14.6526V81.4719L14.8259 81.4209C14.7953 81.5483 14.7392 81.6758 14.6526 81.793C14.566 81.9153 14.4539 82.0223 14.3162 82.1192C14.1786 82.216 14.0308 82.2924 13.8677 82.3485C13.7047 82.4046 13.5314 82.4351 13.3479 82.4351L13.353 82.4301ZM13.5467 81.7522C13.7709 81.7522 13.9697 81.6961 14.1378 81.5891C14.306 81.4821 14.4436 81.3292 14.5405 81.1355C14.6373 80.9418 14.6883 80.7227 14.6883 80.4781C14.6883 80.2334 14.6373 80.0194 14.5405 79.8308C14.4436 79.6422 14.306 79.4893 14.1378 79.3823C13.9697 79.2753 13.7709 79.2192 13.5467 79.2192C13.3224 79.2192 13.1338 79.2753 12.9656 79.3823C12.7975 79.4893 12.6649 79.6422 12.5681 79.8308C12.4713 80.0194 12.4203 80.2385 12.4203 80.4781C12.4203 80.7176 12.4713 80.9469 12.5681 81.1355C12.6649 81.3241 12.7975 81.477 12.9656 81.5891C13.1338 81.7012 13.3275 81.7522 13.5467 81.7522Z" fill="#3EAC60"/>
<path d="M16.1152 79.3261V78.6126H18.5004V79.3261H16.1152ZM16.8899 82.3586V77.6544H17.6238V82.3586H16.8899Z" fill="#3EAC60"/>
<path d="M19.6475 77.7872C19.4895 77.7872 19.3672 77.7464 19.2856 77.6649C19.199 77.5833 19.1582 77.4712 19.1582 77.3234C19.1582 77.1858 19.204 77.0737 19.2907 76.987C19.3773 76.9004 19.4997 76.8596 19.6526 76.8596C19.8055 76.8596 19.9329 76.9004 20.0144 76.9819C20.1011 77.0635 20.1418 77.1756 20.1418 77.3234C20.1418 77.461 20.096 77.5731 20.0093 77.6598C19.9227 77.7464 19.8004 77.7872 19.6475 77.7872ZM19.2907 82.3588V78.6128H20.0246V82.3588H19.2907Z" fill="#3EAC60"/>
<path d="M22.3792 82.3587L20.7942 78.6127H21.5842L22.7258 81.4158L22.5882 81.482L23.8063 78.6127H24.5606L22.8991 82.3587H22.369H22.3792Z" fill="#3EAC60"/>
<path d="M26.8793 82.4303C26.492 82.4303 26.1505 82.3487 25.8549 82.1856C25.5593 82.0225 25.3249 81.7983 25.1567 81.5129C24.9885 81.2275 24.9019 80.9013 24.9019 80.5292C24.9019 80.2336 24.9477 79.9635 25.0446 79.724C25.1414 79.4794 25.2739 79.2704 25.4421 79.092C25.6103 78.9136 25.8141 78.776 26.0486 78.6792C26.283 78.5823 26.5379 78.5314 26.8182 78.5314C27.0628 78.5314 27.2871 78.5773 27.496 78.669C27.705 78.7607 27.8885 78.8881 28.0414 79.0512C28.1943 79.2143 28.3166 79.4029 28.3981 79.6271C28.4796 79.8463 28.5204 80.0909 28.5153 80.3509V80.6668H25.4472L25.2841 80.0807H27.8732L27.7661 80.2031V80.0298C27.7508 79.8718 27.6999 79.7342 27.6081 79.6068C27.5164 79.4844 27.4043 79.3876 27.2667 79.3163C27.1291 79.2449 26.9813 79.2092 26.8182 79.2092C26.5633 79.2092 26.3442 79.2602 26.1709 79.357C25.9925 79.4539 25.86 79.5966 25.7734 79.7851C25.6816 79.9737 25.6358 80.2031 25.6358 80.4783C25.6358 80.7535 25.6918 80.9675 25.7989 81.1612C25.9059 81.3549 26.0639 81.5027 26.2626 81.6097C26.4614 81.7167 26.6908 81.7677 26.9558 81.7677C27.1393 81.7677 27.3126 81.7371 27.4706 81.676C27.6285 81.6148 27.8018 81.5027 27.9853 81.3396L28.3574 81.8594C28.2452 81.9716 28.1025 82.0735 27.9394 82.1602C27.7763 82.2468 27.603 82.313 27.4196 82.364C27.2361 82.415 27.0577 82.4405 26.8793 82.4405V82.4303Z" fill="#3EAC60"/>
<path d="M31.4971 82.359V77.3644H34.6417V78.1085H32.2667V81.62H34.6417V82.3641H31.4971V82.359ZM31.8487 80.1675V79.4234H34.2543V80.1675H31.8487Z" fill="#3EAC60"/>
<path d="M36.8126 82.3587L35.2275 78.6127H36.0175L37.1591 81.4158L37.0215 81.482L38.2396 78.6127H38.9939L37.3324 82.3587H36.8024H36.8126Z" fill="#3EAC60"/>
<path d="M41.3232 82.4303C40.9358 82.4303 40.5944 82.3487 40.2988 82.1856C40.0032 82.0225 39.7687 81.7983 39.6005 81.5129C39.4323 81.2275 39.3457 80.9013 39.3457 80.5292C39.3457 80.2336 39.3916 79.9635 39.4884 79.724C39.5852 79.4794 39.7178 79.2704 39.8859 79.092C40.0541 78.9136 40.258 78.776 40.4924 78.6792C40.7269 78.5823 40.9817 78.5314 41.262 78.5314C41.5067 78.5314 41.7309 78.5773 41.9398 78.669C42.1488 78.7607 42.3323 78.8881 42.4852 79.0512C42.6381 79.2143 42.7604 79.4029 42.842 79.6271C42.9235 79.8463 42.9643 80.0909 42.9592 80.3509V80.6668H39.891L39.7279 80.0807H42.317L42.21 80.2031V80.0298C42.1947 79.8718 42.1437 79.7342 42.052 79.6068C41.9602 79.4844 41.8481 79.3876 41.7105 79.3163C41.5729 79.2449 41.4251 79.2092 41.262 79.2092C41.0072 79.2092 40.788 79.2602 40.6147 79.357C40.4364 79.4539 40.3038 79.5966 40.2172 79.7851C40.1255 79.9737 40.0796 80.2031 40.0796 80.4783C40.0796 80.7535 40.1357 80.9675 40.2427 81.1612C40.3497 81.3549 40.5077 81.5027 40.7065 81.6097C40.9052 81.7167 41.1346 81.7677 41.3996 81.7677C41.5831 81.7677 41.7564 81.7371 41.9144 81.676C42.0724 81.6148 42.2457 81.5027 42.4291 81.3396L42.8012 81.8594C42.689 81.9716 42.5463 82.0735 42.3832 82.1602C42.2202 82.2468 42.0469 82.313 41.8634 82.364C41.6799 82.415 41.5016 82.4405 41.3232 82.4405V82.4303Z" fill="#3EAC60"/>
<path d="M43.7542 82.3587V78.6127H44.4881V79.3823L44.3606 79.4689C44.4065 79.3008 44.5034 79.1478 44.641 79.0102C44.7786 78.8726 44.9417 78.7554 45.1353 78.6688C45.329 78.5821 45.5227 78.5363 45.7215 78.5363C46.0069 78.5363 46.2464 78.5923 46.435 78.7045C46.6235 78.8166 46.7662 78.9848 46.8631 79.2141C46.9599 79.4435 47.0058 79.7288 47.0058 80.0754V82.3587H46.2719V80.1264C46.2719 79.9123 46.2413 79.734 46.1852 79.5964C46.1292 79.4536 46.0374 79.3517 45.9202 79.2906C45.803 79.2294 45.6552 79.1988 45.4768 79.209C45.3341 79.209 45.2016 79.2294 45.0844 79.2753C44.9672 79.3211 44.8601 79.3823 44.7735 79.4638C44.6868 79.5454 44.6155 79.6371 44.5645 79.7441C44.5136 79.8512 44.4881 79.9684 44.4881 80.0907V82.3587H43.7542Z" fill="#3EAC60"/>
<path d="M47.6887 79.3261V78.6126H50.0739V79.3261H47.6887ZM48.4634 82.3586V77.6544H49.1973V82.3586H48.4634Z" fill="#3EAC60"/>
<path d="M55.0125 82.4303C54.6608 82.4303 54.3346 82.364 54.039 82.2366C53.7434 82.1092 53.4835 81.9308 53.2593 81.6964C53.0401 81.467 52.8668 81.1969 52.7445 80.8809C52.6222 80.57 52.561 80.2285 52.561 79.8565C52.561 79.4844 52.6222 79.143 52.7445 78.8321C52.8668 78.5212 53.035 78.2511 53.2593 78.0166C53.4784 77.7873 53.7383 77.6089 54.039 77.4764C54.3346 77.349 54.6608 77.2827 55.0125 77.2827C55.3642 77.2827 55.6903 77.349 55.9859 77.4764C56.2815 77.6038 56.5415 77.7873 56.7657 78.0166C56.9849 78.2511 57.1582 78.5212 57.2805 78.8321C57.4028 79.143 57.4639 79.4844 57.4639 79.8463C57.4639 80.2082 57.4028 80.5496 57.2805 80.8656C57.1582 81.1765 56.99 81.4517 56.7657 81.6811C56.5466 81.9155 56.2866 82.0939 55.9859 82.2213C55.6903 82.3487 55.3642 82.415 55.0125 82.415V82.4303ZM55.0125 81.6811C55.2571 81.6811 55.4763 81.6352 55.6801 81.5434C55.884 81.4517 56.0573 81.3243 56.2051 81.1612C56.3529 80.9981 56.4701 80.8044 56.5517 80.5853C56.6332 80.3661 56.6791 80.1215 56.6791 79.8616C56.6791 79.6017 56.6383 79.357 56.5517 79.1379C56.4701 78.9187 56.3529 78.725 56.2051 78.5619C56.0573 78.3989 55.884 78.2714 55.6801 78.1797C55.4763 78.088 55.2571 78.0421 55.0125 78.0421C54.7679 78.0421 54.5487 78.088 54.3448 78.1797C54.141 78.2714 53.9677 78.3938 53.8148 78.5569C53.667 78.72 53.5498 78.9085 53.4682 79.1328C53.3867 79.357 53.3459 79.5966 53.3459 79.8616C53.3459 80.1266 53.3867 80.3661 53.4682 80.5904C53.5498 80.8146 53.6619 81.0083 53.8148 81.1663C53.9626 81.3294 54.141 81.4517 54.3448 81.5434C54.5487 81.6352 54.7679 81.6811 55.0125 81.6811Z" fill="#3EAC60"/>
<path d="M58.3201 82.3589V78.6129H59.0642V79.7902L58.9928 79.5048C59.0438 79.3213 59.1355 79.1583 59.2629 79.0105C59.3903 78.8627 59.5331 78.7454 59.6962 78.6588C59.8592 78.5721 60.0325 78.5314 60.2058 78.5314C60.2874 78.5314 60.3638 78.5365 60.4403 78.5518C60.5116 78.5671 60.5728 78.5823 60.6135 78.6027L60.4199 79.4029C60.3638 79.3774 60.2975 79.357 60.2313 79.3417C60.1599 79.3265 60.0937 79.3163 60.0274 79.3163C59.9 79.3163 59.7777 79.3417 59.6605 79.3927C59.5433 79.4437 59.4413 79.5099 59.3547 79.6017C59.268 79.6883 59.1967 79.7902 59.1457 79.9075C59.0947 80.0247 59.0693 80.1521 59.0693 80.2897V82.3589H58.3252H58.3201Z" fill="#3EAC60"/>
<path d="M62.7694 83.9999C62.5044 83.9999 62.2394 83.9592 61.9743 83.8725C61.7093 83.791 61.4953 83.6789 61.3373 83.5464L61.6074 82.9755C61.7042 83.0469 61.8163 83.108 61.9438 83.1641C62.0712 83.2202 62.2088 83.2609 62.3515 83.2915C62.4942 83.3221 62.6369 83.3374 62.7745 83.3374C63.0344 83.3374 63.2536 83.2966 63.432 83.21C63.6104 83.1233 63.7429 82.9959 63.8295 82.8328C63.9212 82.6646 63.9671 82.4608 63.9671 82.211V81.4924L64.0435 81.5434C64.0181 81.6912 63.9416 81.8339 63.8091 81.9664C63.6766 82.104 63.5135 82.211 63.3198 82.2977C63.1262 82.3843 62.9223 82.4251 62.7184 82.4251C62.3617 82.4251 62.0457 82.3385 61.7654 82.1703C61.4851 82.0021 61.2659 81.7727 61.1079 81.4771C60.9448 81.1866 60.8633 80.8502 60.8633 80.4731C60.8633 80.096 60.9448 79.7647 61.1028 79.4691C61.2608 79.1786 61.48 78.9441 61.7603 78.7759C62.0355 78.6078 62.3515 78.5211 62.6981 78.5211C62.8408 78.5211 62.9784 78.5415 63.1109 78.5721C63.2434 78.6078 63.3657 78.6587 63.4829 78.7199C63.5951 78.7861 63.697 78.8524 63.7887 78.9288C63.8805 79.0053 63.9518 79.0868 64.0079 79.1735C64.064 79.2601 64.0996 79.3417 64.1149 79.4181L63.9569 79.4742V78.5976H64.6908V82.1142C64.6908 82.4149 64.6449 82.6799 64.5583 82.9093C64.4717 83.1386 64.3442 83.3323 64.1761 83.4954C64.0079 83.6534 63.8091 83.7757 63.5696 83.8572C63.33 83.9388 63.065 83.9847 62.7643 83.9847L62.7694 83.9999ZM62.8 81.7523C63.0344 81.7523 63.2383 81.6963 63.4218 81.5893C63.6053 81.4822 63.7429 81.3293 63.8448 81.1408C63.9467 80.9522 63.9926 80.733 63.9926 80.4833C63.9926 80.2336 63.9416 80.0144 63.8397 79.8258C63.7378 79.6322 63.5951 79.4844 63.4167 79.3723C63.2383 79.2652 63.0344 79.2092 62.8 79.2092C62.5655 79.2092 62.3668 79.2652 62.1884 79.3773C62.01 79.4895 61.8724 79.6424 61.7654 79.836C61.6584 80.0297 61.6125 80.2438 61.6125 80.4884C61.6125 80.733 61.6635 80.9471 61.7654 81.1408C61.8673 81.3344 62.01 81.4822 62.1884 81.5944C62.3668 81.7065 62.5706 81.7575 62.8 81.7575V81.7523Z" fill="#3EAC60"/>
<path d="M67.1677 82.4301C66.8568 82.4301 66.5765 82.3434 66.3217 82.1752C66.0668 82.0019 65.863 81.7726 65.7101 81.477C65.5572 81.1814 65.4807 80.8501 65.4807 80.4781C65.4807 80.106 65.5572 79.7696 65.7152 79.474C65.8681 79.1835 66.077 78.9542 66.342 78.786C66.6071 78.6178 66.9027 78.5363 67.2288 78.5363C67.4225 78.5363 67.6009 78.5668 67.764 78.6229C67.9271 78.679 68.0647 78.7605 68.187 78.8624C68.3093 78.9644 68.4062 79.0816 68.4877 79.2141C68.5693 79.3466 68.6151 79.4893 68.6355 79.6422L68.4724 79.5861V78.6178H69.2165V82.3638H68.4724V81.4719L68.6457 81.4209C68.6202 81.5483 68.559 81.6758 68.4724 81.793C68.3858 81.9153 68.2737 82.0223 68.136 82.1192C67.9984 82.216 67.8506 82.2924 67.6875 82.3485C67.5245 82.4046 67.3512 82.4351 67.1728 82.4351L67.1677 82.4301ZM67.3563 81.7522C67.5805 81.7522 67.7793 81.6961 67.9475 81.5891C68.1157 81.4821 68.2533 81.3292 68.3501 81.1355C68.4469 80.9418 68.4979 80.7227 68.4979 80.4781C68.4979 80.2334 68.4469 80.0194 68.3501 79.8308C68.2533 79.6422 68.1157 79.4893 67.9475 79.3823C67.7793 79.2753 67.5805 79.2192 67.3563 79.2192C67.132 79.2192 66.9435 79.2753 66.7753 79.3823C66.6071 79.4893 66.4746 79.6422 66.3777 79.8308C66.2809 80.0194 66.2299 80.2385 66.2299 80.4781C66.2299 80.7176 66.2809 80.9469 66.3777 81.1355C66.4746 81.3292 66.6071 81.477 66.7753 81.5891C66.9435 81.6961 67.1371 81.7522 67.3563 81.7522Z" fill="#3EAC60"/>
<path d="M70.2414 82.3587V78.6127H70.9753V79.3823L70.8479 79.4689C70.8938 79.3008 70.9906 79.1478 71.1282 79.0102C71.2658 78.8675 71.4289 78.7554 71.6175 78.6688C71.8061 78.5821 72.0048 78.5363 72.2036 78.5363C72.489 78.5363 72.7286 78.5923 72.9171 78.7045C73.1057 78.8166 73.2484 78.9848 73.3452 79.2141C73.4421 79.4435 73.4879 79.7288 73.4879 80.0754V82.3587H72.754V80.1264C72.754 79.9123 72.7235 79.734 72.6674 79.5964C72.6113 79.4536 72.5196 79.3517 72.4024 79.2906C72.2852 79.2243 72.1374 79.1988 71.959 79.209C71.8163 79.209 71.6837 79.2294 71.5665 79.2753C71.4493 79.3211 71.3423 79.3823 71.2556 79.4638C71.169 79.5454 71.0977 79.6371 71.0467 79.7441C70.9957 79.8512 70.9702 79.9684 70.9702 80.0907V82.3587H70.2363H70.2414Z" fill="#3EAC60"/>
<path d="M74.9656 77.7872C74.8076 77.7872 74.6853 77.7464 74.6037 77.6649C74.5171 77.5833 74.4763 77.4712 74.4763 77.3234C74.4763 77.1858 74.5222 77.0737 74.6088 76.987C74.6955 76.9004 74.8178 76.8596 74.9707 76.8596C75.1236 76.8596 75.251 76.9004 75.3325 76.9819C75.4192 77.0635 75.46 77.1756 75.46 77.3234C75.46 77.461 75.4141 77.5731 75.3274 77.6598C75.2408 77.7464 75.1185 77.7872 74.9656 77.7872ZM74.6088 82.3588V78.6128H75.3427V82.3588H74.6088Z" fill="#3EAC60"/>
<path d="M76.3113 82.3587V81.7471L78.2429 79.1631V79.2497H76.3113V78.6127H79.043V79.2141L77.1369 81.7624L77.1063 81.7267H79.0838V82.3638H76.3062L76.3113 82.3587Z" fill="#3EAC60"/>
<path d="M81.6013 82.4303C81.2139 82.4303 80.8724 82.3487 80.5768 82.1856C80.2812 82.0225 80.0468 81.7983 79.8786 81.5129C79.7104 81.2275 79.6238 80.9013 79.6238 80.5292C79.6238 80.2336 79.6697 79.9635 79.7665 79.724C79.8633 79.4794 79.9958 79.2704 80.164 79.092C80.3322 78.9136 80.5361 78.776 80.7705 78.6792C81.005 78.5823 81.2598 78.5314 81.5401 78.5314C81.7847 78.5314 82.009 78.5773 82.218 78.669C82.4269 78.7607 82.6104 78.8881 82.7633 79.0512C82.9162 79.2143 83.0385 79.4029 83.1201 79.6271C83.2016 79.8463 83.2424 80.0909 83.2373 80.3509V80.6668H80.1691L80.006 80.0807H82.5951L82.4881 80.2031V80.0298C82.4728 79.8718 82.4218 79.7342 82.3301 79.6068C82.2383 79.4844 82.1262 79.3876 81.9886 79.3163C81.851 79.2449 81.7032 79.2092 81.5401 79.2092C81.2853 79.2092 81.0661 79.2602 80.8928 79.357C80.7144 79.4539 80.5819 79.5966 80.4953 79.7851C80.4036 79.9737 80.3577 80.2031 80.3577 80.4783C80.3577 80.7535 80.4138 80.9675 80.5208 81.1612C80.6278 81.3549 80.7858 81.5027 80.9846 81.6097C81.1834 81.7167 81.4127 81.7677 81.6777 81.7677C81.8612 81.7677 82.0345 81.7371 82.1925 81.676C82.3505 81.6148 82.5237 81.5027 82.7072 81.3396L83.0793 81.8594C82.9672 81.9716 82.8244 82.0735 82.6614 82.1602C82.4983 82.2468 82.325 82.313 82.1415 82.364C81.958 82.415 81.7796 82.4405 81.6013 82.4405V82.4303Z" fill="#3EAC60"/>
<path d="M84.0327 82.3589V78.6129H84.7768V79.7902L84.7055 79.5048C84.7564 79.3213 84.8482 79.1583 84.9756 79.0105C85.103 78.8627 85.2457 78.7454 85.4088 78.6588C85.5719 78.5721 85.7452 78.5314 85.9185 78.5314C86 78.5314 86.0764 78.5365 86.1529 78.5518C86.2242 78.5671 86.2854 78.5823 86.3261 78.6027L86.1325 79.4029C86.0764 79.3774 86.0102 79.357 85.9439 79.3417C85.8725 79.3265 85.8063 79.3163 85.7401 79.3163C85.6127 79.3163 85.4903 79.3417 85.3731 79.3927C85.2559 79.4437 85.1539 79.5099 85.0673 79.6017C84.9807 79.6883 84.9093 79.7902 84.8584 79.9075C84.8074 80.0247 84.7819 80.1521 84.7819 80.2897V82.3589H84.0378H84.0327Z" fill="#3EAC60"/>
<path d="M49.5946 20.4353C58.1823 20.4353 65.1443 27.3972 65.1443 35.985C65.1443 44.5727 58.1823 51.5346 49.5946 51.5346C41.0069 51.5346 34.0449 44.5727 34.0449 35.985C34.0449 27.3972 41.0069 20.4353 49.5946 20.4353ZM49.5946 41.1325C52.4385 41.1325 54.7472 38.8238 54.7472 35.9799C54.7472 33.136 52.4385 30.8272 49.5946 30.8272C46.7507 30.8272 44.442 33.136 44.442 35.9799C44.442 38.8238 46.7507 41.1325 49.5946 41.1325Z" fill="#3EAC60"/>
<mask id="mask1_114_1791" style="mask-type:luminance" maskUnits="userSpaceOnUse" x="34" y="20" width="31" height="14">
<path d="M34.2131 33.7476H44.9618C45.7926 32.0249 47.5509 30.8323 49.5946 30.8323C51.6383 30.8323 53.4017 32.0249 54.2325 33.7476H64.9812C63.8956 26.2199 57.423 20.4353 49.5946 20.4353C41.7663 20.4353 35.2936 26.2199 34.2131 33.7476Z" fill="white"/>
</mask>
<g mask="url(#mask1_114_1791)">
<path d="M49.5984 5.04882L27.5574 27.0898L49.5984 49.1309L71.6394 27.0898L49.5984 5.04882Z" fill="url(#paint1_linear_114_1791)"/>
</g>
<path d="M34.198 51.8508L21.1763 52.1158L34.6313 30.6541L36.41 27.8459L36.6444 27.4483L42.3628 18.3203C42.8877 17.4947 43.1986 16.4958 43.1782 15.4408V15.4102C43.0865 12.5816 40.7828 10.3034 37.9186 10.3646C35.0849 10.4206 32.8474 12.7905 32.8729 15.6242L22.5116 15.8383C22.3638 7.25057 29.1524 0.18161 37.7096 0.00322919C42.7399 -0.0987024 47.281 2.22024 50.186 5.8643C52.2297 8.44317 53.4988 11.6744 53.5701 15.1961V15.2267C53.6109 17.1838 53.2898 19.0594 52.6324 20.7922" fill="#3EAC60"/>
<mask id="mask2_114_1791" style="mask-type:luminance" maskUnits="userSpaceOnUse" x="21" y="28" width="17" height="25">
<path d="M34.6313 30.6543L21.1763 52.116L34.198 51.851L37.6841 45.9746C35.4161 43.2734 34.0502 39.7874 34.0502 35.9853C34.0502 33.3453 34.7179 30.8683 35.8748 28.687L34.6313 30.6543Z" fill="white"/>
</mask>
<g mask="url(#mask2_114_1791)">
<path d="M33.5596 21.5368L11.0317 34.5433L25.3047 59.2648L47.8326 46.2584L33.5596 21.5368Z" fill="url(#paint2_linear_114_1791)"/>
</g>
<defs>
<linearGradient id="paint0_linear_114_1791" x1="46.4021" y1="34.6941" x2="46.8302" y2="34.4469" gradientUnits="userSpaceOnUse">
<stop stop-color="#3EAC60"/>
<stop offset="0.51" stop-color="#3DAA5E"/>
<stop offset="0.7" stop-color="#3DA35B"/>
<stop offset="0.83" stop-color="#3D9754"/>
<stop offset="0.94" stop-color="#3D864B"/>
<stop offset="1" stop-color="#3D7944"/>
</linearGradient>
<linearGradient id="paint1_linear_114_1791" x1="77.9848" y1="36.6373" x2="60.4162" y2="19.0686" gradientUnits="userSpaceOnUse">
<stop stop-color="#3EAC60"/>
<stop offset="0.42" stop-color="#3DA95E"/>
<stop offset="0.6" stop-color="#3AA25A"/>
<stop offset="0.73" stop-color="#369653"/>
<stop offset="0.84" stop-color="#308449"/>
<stop offset="0.94" stop-color="#286D3B"/>
<stop offset="1" stop-color="#225B31"/>
</linearGradient>
<linearGradient id="paint2_linear_114_1791" x1="23.3962" y1="19.672" x2="44.5647" y2="7.45039" gradientUnits="userSpaceOnUse">
<stop stop-color="#3EAC60"/>
<stop offset="0.51" stop-color="#3DAA5E"/>
<stop offset="0.7" stop-color="#3DA35B"/>
<stop offset="0.83" stop-color="#3D9754"/>
<stop offset="0.94" stop-color="#3D864B"/>
<stop offset="1" stop-color="#3D7944"/>
</linearGradient>
</defs>
</svg>
