<svg width="73" height="108" viewBox="0 0 73 108" fill="none" xmlns="http://www.w3.org/2000/svg">
<path d="M0 100.383H2.57195L3.71749 104.938C3.82764 105.34 3.88271 105.775 3.88271 106.238H4.03692C4.03692 105.775 4.09199 105.34 4.20214 104.938L5.33666 100.383H7.91413V107.84H6.33901V102.933C6.33901 102.752 6.33901 102.57 6.35003 102.394C6.35553 102.217 6.37756 101.992 6.41061 101.722L6.2564 101.7C6.19582 102.118 6.11871 102.526 6.01407 102.933L4.73636 107.84H3.19429L1.91657 102.933C1.81193 102.531 1.72932 102.118 1.67425 101.7L1.52004 101.722C1.55309 101.997 1.56961 102.223 1.58062 102.394C1.58613 102.57 1.59164 102.746 1.59164 102.933V107.84H0V100.383ZM12.3916 108C11.3232 108 10.5412 107.741 10.04 107.224C9.54431 106.706 9.29097 105.995 9.29097 105.098V100.389H10.8716V105.098C10.8716 105.56 10.9873 105.924 11.2131 106.188C11.4389 106.453 11.8299 106.585 12.3861 106.585C12.9424 106.585 13.3169 106.453 13.5427 106.188C13.7685 105.924 13.8786 105.56 13.8786 105.098V100.389H15.4593V105.098C15.4593 105.995 15.2114 106.706 14.7102 107.224C14.2146 107.741 13.4325 108 12.3806 108H12.3916ZM10.9157 99.7721V99.0781H13.8566V99.7721H10.9157ZM16.8471 107.84V100.383H18.4222V106.425H21.5284V107.84H16.8471ZM21.8533 107.84L24.4418 100.383H26.1601L28.7486 107.84H27.0854L26.6338 106.403H23.9682L23.5166 107.84H21.8478H21.8533ZM26.2097 105.037L25.5653 102.983C25.4442 102.559 25.3781 102.228 25.3781 101.986H25.2239C25.2239 102.245 25.1633 102.581 25.0476 102.983L24.4033 105.037H26.2097Z" fill="white"/>
<path d="M32.9342 101.479C32.5487 101.479 32.2017 101.545 31.8988 101.678C31.5904 101.81 31.3315 102.003 31.1167 102.25C30.9019 102.498 30.7367 102.801 30.6211 103.154C30.5054 103.506 30.4503 103.903 30.4503 104.349C30.4503 104.933 30.544 105.445 30.7257 105.874C30.9075 106.304 31.1828 106.64 31.5463 106.877C31.9098 107.113 32.3669 107.229 32.9121 107.229C33.2261 107.229 33.518 107.202 33.7933 107.152C34.0687 107.102 34.3386 107.036 34.5974 106.954V107.659C34.3441 107.752 34.0742 107.824 33.7933 107.873C33.5125 107.918 33.182 107.94 32.7965 107.94C32.086 107.94 31.4967 107.791 31.0176 107.499C30.544 107.207 30.186 106.789 29.9492 106.249C29.7124 105.709 29.5912 105.076 29.5912 104.343C29.5912 103.815 29.6628 103.335 29.8115 102.895C29.9602 102.46 30.175 102.08 30.4614 101.76C30.7477 101.441 31.0947 101.199 31.5133 101.022C31.9263 100.846 32.4055 100.763 32.9397 100.763C33.2922 100.763 33.6336 100.796 33.9585 100.868C34.2835 100.94 34.5809 101.039 34.8452 101.171L34.5203 101.859C34.3 101.76 34.0522 101.672 33.7878 101.595C33.5235 101.518 33.2371 101.485 32.9287 101.485L32.9342 101.479Z" fill="white"/>
<path d="M38.1882 100.868C38.761 100.868 39.2346 100.939 39.6091 101.083C39.9836 101.226 40.2645 101.441 40.4462 101.727C40.6335 102.019 40.7216 102.388 40.7216 102.834C40.7216 103.203 40.6555 103.511 40.5234 103.759C40.3912 104.007 40.2149 104.205 40.0001 104.359C39.7854 104.514 39.5541 104.629 39.3062 104.712L41.2173 107.846H40.27L38.5627 104.932H37.1143V107.846H36.3047V100.868H38.1882ZM38.1387 101.567H37.1143V104.244H38.2213C38.7885 104.244 39.2071 104.128 39.4769 103.897C39.7468 103.666 39.879 103.324 39.879 102.872C39.879 102.399 39.7358 102.063 39.4494 101.865C39.163 101.666 38.7279 101.567 38.1331 101.567H38.1387Z" fill="white"/>
<path d="M46.4108 107.84H42.5281V100.862H46.4108V101.578H43.3377V103.836H46.2345V104.541H43.3377V107.124H46.4108V107.84Z" fill="white"/>
<path d="M52.5295 107.84L51.6704 105.626H48.8726L48.019 107.84H47.1984L49.93 100.835H50.6625L53.3722 107.84H52.535H52.5295ZM51.428 104.905L50.613 102.707C50.5964 102.652 50.5634 102.559 50.5193 102.426C50.4753 102.294 50.4312 102.162 50.3871 102.019C50.3431 101.881 50.3045 101.765 50.277 101.677C50.244 101.81 50.2109 101.936 50.1724 102.068C50.1338 102.195 50.1008 102.316 50.0677 102.426C50.0347 102.537 50.0016 102.63 49.9741 102.707L49.1425 104.905H51.4225H51.428Z" fill="white"/>
<path d="M55.7732 107.84H54.9581V101.578H52.7606V100.862H57.9596V101.578H55.7732V107.84Z" fill="white"/>
<path d="M59.2097 107.84V100.862H60.0193V107.84H59.2097Z" fill="white"/>
<path d="M67.0028 100.868L64.497 107.846H63.6819L61.176 100.868H62.0242L63.6544 105.461C63.7204 105.643 63.781 105.824 63.8361 105.99C63.8857 106.16 63.9352 106.32 63.9738 106.474C64.0178 106.629 64.0509 106.783 64.0839 106.926C64.117 106.777 64.15 106.629 64.1941 106.469C64.2381 106.309 64.2822 106.149 64.3373 105.979C64.3923 105.808 64.4529 105.632 64.519 105.444L66.1437 100.862H67.0028V100.868Z" fill="white"/>
<path d="M72.042 107.84H68.1593V100.862H72.042V101.578H68.9689V103.836H71.8658V104.541H68.9689V107.124H72.042V107.84Z" fill="white"/>
<path d="M66.1437 48.3219C64.6071 44.687 62.4041 41.4211 59.6009 38.6178C56.7976 35.8146 53.5317 33.6116 49.8968 32.0751C46.1298 30.4834 42.1314 29.6738 38.0064 29.6738C37.3785 29.6738 36.7562 29.6959 36.1339 29.7344C35.8915 29.6959 35.6437 29.6738 35.3959 29.6738C33.9089 29.6738 32.6973 28.4622 32.6973 26.9752C32.6973 25.4882 33.9089 24.2766 35.3959 24.2766H48.0353C50.6348 24.2766 52.7552 22.1618 52.7552 19.5568C52.7552 16.9518 50.6403 14.8369 48.0353 14.8369H35.3959C33.9089 14.8369 32.6973 13.6253 32.6973 12.1383C32.6973 10.6513 33.9089 9.43967 35.3959 9.43967H60.6803C63.2798 9.43967 65.4002 7.32483 65.4002 4.71984C65.4002 2.11484 63.2853 0 60.6803 0H35.3959C28.7044 0 23.2631 5.44131 23.2631 12.1328C23.2631 14.925 24.2104 17.497 25.802 19.5457C24.2104 21.6 23.2631 24.172 23.2631 26.9587C23.2631 29.035 23.7863 30.9901 24.7115 32.6974C21.6384 34.1844 18.8517 36.1671 16.4174 38.6013C13.6141 41.4046 11.4112 44.6705 9.87461 48.3054C8.28298 52.0724 7.47339 56.0763 7.47339 60.1958C7.47339 64.3153 8.28298 68.3137 9.87461 72.0863C11.4112 75.7212 13.6141 78.9871 16.4174 81.7903C19.2207 84.5936 22.4865 86.7965 26.1214 88.3331C29.8885 89.9247 33.8868 90.7343 38.0119 90.7343C42.1369 90.7343 46.1298 89.9247 49.9024 88.3331C53.5372 86.7965 56.8031 84.5936 59.6064 81.7903C62.4096 78.9871 64.6126 75.7212 66.1492 72.0863C67.7408 68.3192 68.5504 64.3209 68.5504 60.1958C68.5504 56.0708 67.7408 52.0779 66.1492 48.3054M38.0064 39.108C43.646 39.108 48.9441 41.3055 52.9314 45.2873C56.9188 49.2747 59.1107 54.5728 59.1107 60.2123C59.1107 65.8519 56.9133 71.15 52.9314 75.1374C48.9441 79.1247 43.646 81.3167 38.0064 81.3167C32.3668 81.3167 27.0687 79.1192 23.0813 75.1374C19.094 71.15 16.902 65.8519 16.902 60.2123C16.902 54.5728 19.0995 49.2747 23.0813 45.2873C27.0687 41.2999 32.3668 39.108 38.0064 39.108Z" fill="white"/>
</svg>
