<svg width="1024" height="467" viewBox="0 0 1024 467" fill="none" xmlns="http://www.w3.org/2000/svg">
<g clip-path="url(#clip0_114_1656)">
<path d="M671.124 375.854C671.124 375.854 550.722 187.903 514.117 131.084C512.141 128.067 508.001 122.88 507.907 112.082C507.671 91.5233 524.515 74.8784 545.029 74.8784C565.543 74.8784 582.152 91.5233 582.152 112.082H656.867C656.867 50.1704 606.806 0 545.029 0C483.252 0 433.191 50.1704 433.191 112.082C433.191 126.935 436.108 141.128 441.378 154.142C390.846 164.94 352.923 209.876 352.923 263.772C352.923 325.683 402.985 375.854 464.762 375.854C501.084 375.854 533.361 358.502 553.781 331.578L582.199 375.854H671.171H671.124ZM464.715 300.975C444.201 300.975 427.592 284.331 427.592 263.772C427.592 243.213 444.201 226.569 464.715 226.569C485.228 226.569 501.837 243.213 501.837 263.772C501.837 284.331 485.228 300.975 464.715 300.975Z" fill="#FFCE27"/>
<path d="M211.538 0V138.299C189.33 107.225 157.195 86.9024 121.484 86.9024C54.39 86.9024 0 151.596 0 231.378C0 311.16 54.39 375.854 121.484 375.854C157.195 375.854 189.33 357.511 211.538 329.361V375.854H298.392V0H211.538ZM150.231 301.117C116.402 301.117 88.9248 273.627 88.9248 239.677V226.804C88.9248 192.902 116.355 165.364 150.231 165.364C184.06 165.364 211.538 192.854 211.538 226.804V239.677C211.538 273.58 184.107 301.117 150.231 301.117Z" fill="#FFCE27"/>
<path d="M812.462 467V328.701C834.67 359.775 866.806 380.098 902.517 380.098C969.61 380.098 1024 315.404 1024 235.622C1024 155.84 969.61 91.1461 902.517 91.1461C866.806 91.1461 834.67 109.488 812.462 137.639V91.1461H725.608V467H812.462ZM873.769 165.93C907.598 165.93 935.075 193.42 935.075 227.37V240.243C935.075 274.146 907.645 301.683 873.769 301.683C839.94 301.683 812.462 274.193 812.462 240.243V227.37C812.462 193.467 839.893 165.93 873.769 165.93Z" fill="#FFCE27"/>
<g opacity="0.5">
<path fill-rule="evenodd" clip-rule="evenodd" d="M480 233C480 250.673 494.327 265 512 265C529.673 265 544 250.673 544 233C544 215.327 529.673 201 512 201C494.327 201 480 215.327 480 233ZM512 197C492.118 197 476 213.118 476 233C476 252.882 492.118 269 512 269C531.882 269 548 252.882 548 233C548 213.118 531.882 197 512 197Z" fill="white"/>
<path d="M525.008 232.671C525.674 233.056 525.674 234.018 525.008 234.403L507.052 244.77C506.386 245.155 505.552 244.674 505.552 243.904L505.552 223.171C505.552 222.401 506.386 221.92 507.052 222.305L525.008 232.671Z" fill="white"/>
</g>
</g>
<defs>
<clipPath id="clip0_114_1656">
<rect width="1024" height="467" fill="white"/>
</clipPath>
</defs>
</svg>
